# xmcd
#
# Track frame offsets: 
#        150
#        15167
#        33832
#        69312
#        94774
#        104882
#        127450
#        159924
#        184424
#        197386
#        207141
#        232049
#        251668
#        271991
#        298492
#        315341
#        332193
#
# Disc length: 4775 seconds
#
# Revision: 1
# Processed by: cddbd v1.5.2PL0 Copyright (c) Steve Scherf et al.
# Submitted via: ExactAudioCopy v1.3
#
DISCID=f912a511
DTITLE=Various Artist - Akella Presents - vol.113 - Blues Instrumenta
DTITLE=l  CD1
DYEAR=2017
DGENRE=Blues
TTITLE0=Jim Allchin - Chime Blues
TTITLE1=Melvin Taylor - Straight Up
TTITLE2=Modern Blues Band - Wonderful Tonight
TTITLE3=Jimmy Thackery - Bella Noche
TTITLE4=Blacktop Deluxe - Short Walk Home
TTITLE5=Cherry and The Lowboys - Spacewalk
TTITLE6=Kees Dusink - Marian
TTITLE7=Steve Hunter - Twilight In Harlem
TTITLE8=Mojo Blues Band - Hot Bricks
TTITLE9=Daddy Mack - Door Jam
TTITLE10=Dave Specter - Minor Side Down
TTITLE11=Texas Slim - Lightning Boogie
TTITLE12=Arlen Roth - You Really Got a Hold On Me
TTITLE13=Mem Shannon - The Lights Of Caracas
TTITLE14=Terry Davidson - Memphis Bones
TTITLE15=Rick Vito - River Of Blues
TTITLE16=Nick Moss - Big Mike's Sweet Potato Pie
EXTD=
EXTT0=
EXTT1=
EXTT2=
EXTT3=
EXTT4=
EXTT5=
EXTT6=
EXTT7=
EXTT8=
EXTT9=
EXTT10=
EXTT11=
EXTT12=
EXTT13=
EXTT14=
EXTT15=
EXTT16=
PLAYORDER=
